<?xml version="1.0" encoding="UTF-8" standalone="no" ?>
<!DOCTYPE svg PUBLIC "-//W3C//DTD SVG 1.1//EN" "http://www.w3.org/Graphics/SVG/1.1/DTD/svg11.dtd">
<svg xmlns="http://www.w3.org/2000/svg" xmlns:xlink="http://www.w3.org/1999/xlink" version="1.1" width="1280" height="720" viewBox="0 0 1280 720" xml:space="preserve">
<desc>Created with Fabric.js 4.0.0-beta.8</desc>
<defs>
</defs>
<g transform="matrix(1 0 0 1 640.5 360.5)"  >
<rect style="stroke: none; stroke-width: 1; stroke-dasharray: none; stroke-linecap: butt; stroke-dashoffset: 0; stroke-linejoin: miter; stroke-miterlimit: 4; fill: rgb(255,252,252); fill-rule: nonzero; opacity: 1;"  x="-640" y="-360" rx="0" ry="0" width="1280" height="720" />
</g>
<g transform="matrix(0.36 0 0 0.36 73.87 87.37)"  >
<circle style="stroke: none; stroke-width: 1; stroke-dasharray: none; stroke-linecap: butt; stroke-dashoffset: 0; stroke-linejoin: miter; stroke-miterlimit: 4; fill: rgb(254,195,255); fill-rule: nonzero; opacity: 1;"  cx="0" cy="0" r="16" />
</g>
<g transform="matrix(0.22 0 0 0.22 252.45 55.44)"  >
<circle style="stroke: none; stroke-width: 1; stroke-dasharray: none; stroke-linecap: butt; stroke-dashoffset: 0; stroke-linejoin: miter; stroke-miterlimit: 4; fill: rgb(254,195,255); fill-rule: nonzero; opacity: 1;"  cx="0" cy="0" r="16" />
</g>
<g transform="matrix(0.28 0 0 0.28 309.04 29.39)"  >
<circle style="stroke: none; stroke-width: 1; stroke-dasharray: none; stroke-linecap: butt; stroke-dashoffset: 0; stroke-linejoin: miter; stroke-miterlimit: 4; fill: rgb(254,195,255); fill-rule: nonzero; opacity: 1;"  cx="0" cy="0" r="16" />
</g>
<g transform="matrix(0.4 0 0 0.4 539.91 17.37)"  >
<circle style="stroke: none; stroke-width: 1; stroke-dasharray: none; stroke-linecap: butt; stroke-dashoffset: 0; stroke-linejoin: miter; stroke-miterlimit: 4; fill: rgb(254,195,255); fill-rule: nonzero; opacity: 1;"  cx="0" cy="0" r="16" />
</g>
<g transform="matrix(0.16 0 0 0.16 951.29 74.79)"  >
<circle style="stroke: none; stroke-width: 1; stroke-dasharray: none; stroke-linecap: butt; stroke-dashoffset: 0; stroke-linejoin: miter; stroke-miterlimit: 4; fill: rgb(254,195,255); fill-rule: nonzero; opacity: 1;"  cx="0" cy="0" r="16" />
</g>
<g transform="matrix(0.23 0 0 0.23 187.37 149.28)"  >
<circle style="stroke: none; stroke-width: 1; stroke-dasharray: none; stroke-linecap: butt; stroke-dashoffset: 0; stroke-linejoin: miter; stroke-miterlimit: 4; fill: rgb(254,195,255); fill-rule: nonzero; opacity: 1;"  cx="0" cy="0" r="16" />
</g>
<g transform="matrix(0.29 0 0 0.29 365.38 178.05)"  >
<circle style="stroke: none; stroke-width: 1; stroke-dasharray: none; stroke-linecap: butt; stroke-dashoffset: 0; stroke-linejoin: miter; stroke-miterlimit: 4; fill: rgb(254,195,255); fill-rule: nonzero; opacity: 1;"  cx="0" cy="0" r="16" />
</g>
<g transform="matrix(0.2 0 0 0.2 518.04 143.42)"  >
<circle style="stroke: none; stroke-width: 1; stroke-dasharray: none; stroke-linecap: butt; stroke-dashoffset: 0; stroke-linejoin: miter; stroke-miterlimit: 4; fill: rgb(254,195,255); fill-rule: nonzero; opacity: 1;"  cx="0" cy="0" r="16" />
</g>
<g transform="matrix(0.21 0 0 0.21 657 127.12)"  >
<circle style="stroke: none; stroke-width: 1; stroke-dasharray: none; stroke-linecap: butt; stroke-dashoffset: 0; stroke-linejoin: miter; stroke-miterlimit: 4; fill: rgb(254,195,255); fill-rule: nonzero; opacity: 1;"  cx="0" cy="0" r="16" />
</g>
<g transform="matrix(0.43 0 0 0.43 858.94 158.46)"  >
<circle style="stroke: none; stroke-width: 1; stroke-dasharray: none; stroke-linecap: butt; stroke-dashoffset: 0; stroke-linejoin: miter; stroke-miterlimit: 4; fill: rgb(254,195,255); fill-rule: nonzero; opacity: 1;"  cx="0" cy="0" r="16" />
</g>
<g transform="matrix(0.32 0 0 0.32 954.71 145.5)"  >
<circle style="stroke: none; stroke-width: 1; stroke-dasharray: none; stroke-linecap: butt; stroke-dashoffset: 0; stroke-linejoin: miter; stroke-miterlimit: 4; fill: rgb(254,195,255); fill-rule: nonzero; opacity: 1;"  cx="0" cy="0" r="16" />
</g>
<g transform="matrix(0.17 0 0 0.17 1061.42 156.92)"  >
<circle style="stroke: none; stroke-width: 1; stroke-dasharray: none; stroke-linecap: butt; stroke-dashoffset: 0; stroke-linejoin: miter; stroke-miterlimit: 4; fill: rgb(254,195,255); fill-rule: nonzero; opacity: 1;"  cx="0" cy="0" r="16" />
</g>
<g transform="matrix(0.33 0 0 0.33 194.25 311.14)"  >
<circle style="stroke: none; stroke-width: 1; stroke-dasharray: none; stroke-linecap: butt; stroke-dashoffset: 0; stroke-linejoin: miter; stroke-miterlimit: 4; fill: rgb(254,195,255); fill-rule: nonzero; opacity: 1;"  cx="0" cy="0" r="16" />
</g>
<g transform="matrix(0.27 0 0 0.27 326.5 348.14)"  >
<circle style="stroke: none; stroke-width: 1; stroke-dasharray: none; stroke-linecap: butt; stroke-dashoffset: 0; stroke-linejoin: miter; stroke-miterlimit: 4; fill: rgb(254,195,255); fill-rule: nonzero; opacity: 1;"  cx="0" cy="0" r="16" />
</g>
<g transform="matrix(0.29 0 0 0.29 452.14 255.65)"  >
<circle style="stroke: none; stroke-width: 1; stroke-dasharray: none; stroke-linecap: butt; stroke-dashoffset: 0; stroke-linejoin: miter; stroke-miterlimit: 4; fill: rgb(254,195,255); fill-rule: nonzero; opacity: 1;"  cx="0" cy="0" r="16" />
</g>
<g transform="matrix(0.17 0 0 0.17 926.33 445.35)"  >
<circle style="stroke: none; stroke-width: 1; stroke-dasharray: none; stroke-linecap: butt; stroke-dashoffset: 0; stroke-linejoin: miter; stroke-miterlimit: 4; fill: rgb(254,195,255); fill-rule: nonzero; opacity: 1;"  cx="0" cy="0" r="16" />
</g>
<g transform="matrix(0.28 0 0 0.28 851.85 312.58)"  >
<circle style="stroke: none; stroke-width: 1; stroke-dasharray: none; stroke-linecap: butt; stroke-dashoffset: 0; stroke-linejoin: miter; stroke-miterlimit: 4; fill: rgb(254,195,255); fill-rule: nonzero; opacity: 1;"  cx="0" cy="0" r="16" />
</g>
<g transform="matrix(0.33 0 0 0.33 948.47 373.85)"  >
<circle style="stroke: none; stroke-width: 1; stroke-dasharray: none; stroke-linecap: butt; stroke-dashoffset: 0; stroke-linejoin: miter; stroke-miterlimit: 4; fill: rgb(254,195,255); fill-rule: nonzero; opacity: 1;"  cx="0" cy="0" r="16" />
</g>
<g transform="matrix(0.31 0 0 0.31 1061.19 372.48)"  >
<circle style="stroke: none; stroke-width: 1; stroke-dasharray: none; stroke-linecap: butt; stroke-dashoffset: 0; stroke-linejoin: miter; stroke-miterlimit: 4; fill: rgb(254,195,255); fill-rule: nonzero; opacity: 1;"  cx="0" cy="0" r="16" />
</g>
<g transform="matrix(0.17 0 0 0.17 1188.14 292.93)"  >
<circle style="stroke: none; stroke-width: 1; stroke-dasharray: none; stroke-linecap: butt; stroke-dashoffset: 0; stroke-linejoin: miter; stroke-miterlimit: 4; fill: rgb(254,195,255); fill-rule: nonzero; opacity: 1;"  cx="0" cy="0" r="16" />
</g>
<g transform="matrix(0.46 0 0 0.46 114.14 511.58)"  >
<circle style="stroke: none; stroke-width: 1; stroke-dasharray: none; stroke-linecap: butt; stroke-dashoffset: 0; stroke-linejoin: miter; stroke-miterlimit: 4; fill: rgb(254,195,255); fill-rule: nonzero; opacity: 1;"  cx="0" cy="0" r="16" />
</g>
<g transform="matrix(0.34 0 0 0.34 200.49 475.51)"  >
<circle style="stroke: none; stroke-width: 1; stroke-dasharray: none; stroke-linecap: butt; stroke-dashoffset: 0; stroke-linejoin: miter; stroke-miterlimit: 4; fill: rgb(254,195,255); fill-rule: nonzero; opacity: 1;"  cx="0" cy="0" r="16" />
</g>
<g transform="matrix(0.28 0 0 0.28 322.42 529.86)"  >
<circle style="stroke: none; stroke-width: 1; stroke-dasharray: none; stroke-linecap: butt; stroke-dashoffset: 0; stroke-linejoin: miter; stroke-miterlimit: 4; fill: rgb(254,195,255); fill-rule: nonzero; opacity: 1;"  cx="0" cy="0" r="16" />
</g>
<g transform="matrix(0.33 0 0 0.33 462.08 511.66)"  >
<circle style="stroke: none; stroke-width: 1; stroke-dasharray: none; stroke-linecap: butt; stroke-dashoffset: 0; stroke-linejoin: miter; stroke-miterlimit: 4; fill: rgb(254,195,255); fill-rule: nonzero; opacity: 1;"  cx="0" cy="0" r="16" />
</g>
<g transform="matrix(0.35 0 0 0.35 634.38 569.77)"  >
<circle style="stroke: none; stroke-width: 1; stroke-dasharray: none; stroke-linecap: butt; stroke-dashoffset: 0; stroke-linejoin: miter; stroke-miterlimit: 4; fill: rgb(254,195,255); fill-rule: nonzero; opacity: 1;"  cx="0" cy="0" r="16" />
</g>
<g transform="matrix(0.2 0 0 0.2 828.54 506.35)"  >
<circle style="stroke: none; stroke-width: 1; stroke-dasharray: none; stroke-linecap: butt; stroke-dashoffset: 0; stroke-linejoin: miter; stroke-miterlimit: 4; fill: rgb(254,195,255); fill-rule: nonzero; opacity: 1;"  cx="0" cy="0" r="16" />
</g>
<g transform="matrix(0.37 0 0 0.37 988.39 509.26)"  >
<circle style="stroke: none; stroke-width: 1; stroke-dasharray: none; stroke-linecap: butt; stroke-dashoffset: 0; stroke-linejoin: miter; stroke-miterlimit: 4; fill: rgb(254,195,255); fill-rule: nonzero; opacity: 1;"  cx="0" cy="0" r="16" />
</g>
<g transform="matrix(0.37 0 0 0.37 1122.88 461.58)"  >
<circle style="stroke: none; stroke-width: 1; stroke-dasharray: none; stroke-linecap: butt; stroke-dashoffset: 0; stroke-linejoin: miter; stroke-miterlimit: 4; fill: rgb(254,195,255); fill-rule: nonzero; opacity: 1;"  cx="0" cy="0" r="16" />
</g>
<g transform="matrix(0.37 0 0 0.37 78.61 616.72)"  >
<circle style="stroke: none; stroke-width: 1; stroke-dasharray: none; stroke-linecap: butt; stroke-dashoffset: 0; stroke-linejoin: miter; stroke-miterlimit: 4; fill: rgb(254,195,255); fill-rule: nonzero; opacity: 1;"  cx="0" cy="0" r="16" />
</g>
<g transform="matrix(0.27 0 0 0.27 212.24 638.55)"  >
<circle style="stroke: none; stroke-width: 1; stroke-dasharray: none; stroke-linecap: butt; stroke-dashoffset: 0; stroke-linejoin: miter; stroke-miterlimit: 4; fill: rgb(254,195,255); fill-rule: nonzero; opacity: 1;"  cx="0" cy="0" r="16" />
</g>
<g transform="matrix(0.3 0 0 0.3 328.29 614.34)"  >
<circle style="stroke: none; stroke-width: 1; stroke-dasharray: none; stroke-linecap: butt; stroke-dashoffset: 0; stroke-linejoin: miter; stroke-miterlimit: 4; fill: rgb(254,195,255); fill-rule: nonzero; opacity: 1;"  cx="0" cy="0" r="16" />
</g>
<g transform="matrix(0.38 0 0 0.38 458.08 606.58)"  >
<circle style="stroke: none; stroke-width: 1; stroke-dasharray: none; stroke-linecap: butt; stroke-dashoffset: 0; stroke-linejoin: miter; stroke-miterlimit: 4; fill: rgb(254,195,255); fill-rule: nonzero; opacity: 1;"  cx="0" cy="0" r="16" />
</g>
<g transform="matrix(0.35 0 0 0.35 662.41 641.71)"  >
<circle style="stroke: none; stroke-width: 1; stroke-dasharray: none; stroke-linecap: butt; stroke-dashoffset: 0; stroke-linejoin: miter; stroke-miterlimit: 4; fill: rgb(254,195,255); fill-rule: nonzero; opacity: 1;"  cx="0" cy="0" r="16" />
</g>
<g transform="matrix(0.37 0 0 0.37 820.41 666.78)"  >
<circle style="stroke: none; stroke-width: 1; stroke-dasharray: none; stroke-linecap: butt; stroke-dashoffset: 0; stroke-linejoin: miter; stroke-miterlimit: 4; fill: rgb(254,195,255); fill-rule: nonzero; opacity: 1;"  cx="0" cy="0" r="16" />
</g>
<g transform="matrix(0.2 0 0 0.2 921.21 674.43)"  >
<circle style="stroke: none; stroke-width: 1; stroke-dasharray: none; stroke-linecap: butt; stroke-dashoffset: 0; stroke-linejoin: miter; stroke-miterlimit: 4; fill: rgb(254,195,255); fill-rule: nonzero; opacity: 1;"  cx="0" cy="0" r="16" />
</g>
<g transform="matrix(0.29 0 0 0.29 1048.22 602.35)"  >
<circle style="stroke: none; stroke-width: 1; stroke-dasharray: none; stroke-linecap: butt; stroke-dashoffset: 0; stroke-linejoin: miter; stroke-miterlimit: 4; fill: rgb(254,195,255); fill-rule: nonzero; opacity: 1;"  cx="0" cy="0" r="16" />
</g>
<g transform="matrix(0.21 0 0 0.21 1210.8 593.31)"  >
<circle style="stroke: none; stroke-width: 1; stroke-dasharray: none; stroke-linecap: butt; stroke-dashoffset: 0; stroke-linejoin: miter; stroke-miterlimit: 4; fill: rgb(254,195,255); fill-rule: nonzero; opacity: 1;"  cx="0" cy="0" r="16" />
</g>
</svg>