<?xml version="1.0" encoding="UTF-8" standalone="no"?><svg width="17px" height="20px" viewBox="0 0 17 20" version="1.1" xmlns="http://www.w3.org/2000/svg" xmlns:xlink="http://www.w3.org/1999/xlink">        <title>cart</title>    <desc>Created with Sketch.</desc>    <defs></defs>    <g id="Symbols" stroke="none" stroke-width="1" fill="none" fill-rule="evenodd">        <g id="header-black" transform="translate(-1123.000000, -5.000000)" fill="#010002">            <g id="cart" transform="translate(1123.137255, 5.000000)">                <path d="M10.9362255,5.71151961 C11.1561765,5.71151961 11.3347059,5.53343137 11.3347059,5.31303922 C11.3347059,5.09269608 11.1561765,4.91455882 10.9362255,4.91455882 L5.465,4.91455882 C5.24504902,4.91455882 5.06651961,5.09264706 5.06651961,5.31303922 C5.06651961,5.53338235 5.24504902,5.71151961 5.465,5.71151961 L10.9362255,5.71151961 L10.9362255,5.71151961 Z" id="Shape"></path>                <path d="M16.4246078,4.91460784 L13.7102941,4.91460784 C13.4903431,4.91460784 13.3118137,5.09269608 13.3118137,5.31308824 C13.3118137,5.53343137 13.4903431,5.71156863 13.7102941,5.71156863 L16.0261275,5.71156863 L16.0261275,19.1763235 L0.809754902,19.1763235 L0.809754902,5.71151961 L2.99289216,5.71151961 C3.21284314,5.71151961 3.39137255,5.53343137 3.39137255,5.31303922 C3.39137255,5.09269608 3.21284314,4.91455882 2.99289216,4.91455882 L0.411323529,4.91455882 C0.191372549,4.91455882 0.0128431373,5.09264706 0.0128431373,5.31303922 L0.0128431373,19.5747059 C0.0128431373,19.795049 0.191372549,19.9731863 0.411323529,19.9731863 L16.4246078,19.9731863 C16.6445588,19.9731863 16.8230882,19.795098 16.8230882,19.5747059 L16.8230882,5.31303922 C16.8230882,5.09269608 16.644951,4.91460784 16.4246078,4.91460784 L16.4246078,4.91460784 Z" id="Shape"></path>                <path d="M12.2838235,6.60764706 C12.5037745,6.60764706 12.6823039,6.42955882 12.6823039,6.20916667 L12.6823039,3.30362745 C12.6822549,1.4822549 10.7158824,0 8.28926471,0 C5.87220588,0 3.90622549,1.4822549 3.90622549,3.30362745 L3.90622549,6.20921569 C3.90622549,6.42955882 4.0847549,6.60769608 4.30470588,6.60769608 C4.52465686,6.60769608 4.70318627,6.42960784 4.70318627,6.20921569 L4.70318627,3.30362745 C4.70318627,1.92137255 6.31215686,0.796911765 8.29926471,0.796911765 C10.2764216,0.796911765 11.8853922,1.92137255 11.8853922,3.30362745 L11.8853922,6.20921569 C11.8853431,6.42955882 12.0634804,6.60764706 12.2838235,6.60764706 L12.2838235,6.60764706 Z" id="Shape"></path>                <path d="M3.27901961,7.23362745 C3.27901961,7.79862745 3.73926471,8.25848039 4.30465686,8.25848039 C4.87004902,8.25848039 5.33029412,7.79867647 5.33029412,7.23362745 C5.33029412,7.01328431 5.15176471,6.83514706 4.93181373,6.83514706 C4.71186275,6.83514706 4.53333333,7.01323529 4.53333333,7.23362745 C4.53333333,7.35916667 4.43093137,7.46156863 4.30460784,7.46156863 C4.17867647,7.46156863 4.07588235,7.35916667 4.07588235,7.23362745 C4.07588235,7.01328431 3.89735294,6.83514706 3.67740196,6.83514706 C3.45745098,6.83514706 3.27901961,7.01328431 3.27901961,7.23362745 L3.27901961,7.23362745 Z" id="Shape"></path>                <path d="M12.2838235,8.25848039 C12.8492157,8.25848039 13.3094608,7.79867647 13.3094608,7.23362745 C13.3094608,7.01328431 13.1309314,6.83514706 12.9109804,6.83514706 C12.6910294,6.83514706 12.5125,7.01323529 12.5125,7.23362745 C12.5125,7.35916667 12.410098,7.46156863 12.2837745,7.46156863 C12.157451,7.46156863 12.055049,7.35916667 12.055049,7.23362745 C12.055049,7.01328431 11.8765196,6.83514706 11.6565686,6.83514706 C11.4366176,6.83514706 11.2580882,7.01323529 11.2580882,7.23362745 C11.2581863,7.79862745 11.7183824,8.25848039 12.2838235,8.25848039 L12.2838235,8.25848039 Z" id="Shape"></path>            </g>        </g>    </g></svg>